<?xml version="1.0" standalone="no"?>
<!DOCTYPE svg PUBLIC "-//W3C//DTD SVG 20010904//EN"
 "http://www.w3.org/TR/2001/REC-SVG-20010904/DTD/svg10.dtd">
<svg version="1.0" xmlns="http://www.w3.org/2000/svg"
 width="900.000000pt" height="180.000000pt" viewBox="0 0 900.000000 180.000000"
 preserveAspectRatio="xMidYMid meet">
<metadata>
Created by potrace 1.10, written by Peter Selinger 2001-2011
</metadata>
<g transform="translate(0.000000,180.000000) scale(0.100000,-0.100000)"
fill="#3f51b5" stroke="none">
<path d="M100 1753 c-34 -14 -70 -45 -84 -75 -14 -27 -16 -124 -16 -803 l0
-772 39 -44 c37 -43 40 -44 99 -44 53 0 65 4 91 29 16 16 34 40 40 55 7 16 11
206 13 516 3 532 -1 483 57 603 23 47 104 136 159 175 58 40 97 55 192 74 182
38 379 -39 487 -190 55 -76 63 -93 84 -166 17 -60 19 -106 19 -534 0 -512 -2
-497 58 -542 20 -14 43 -20 84 -20 49 0 61 4 88 30 16 16 35 45 40 64 6 21 10
219 10 483 0 482 3 512 53 615 40 82 147 190 217 218 8 4 29 13 45 20 17 8 65
19 108 26 160 25 311 -25 427 -141 83 -83 123 -164 139 -279 7 -51 11 -251 11
-507 0 -255 4 -433 10 -449 16 -41 58 -73 103 -80 60 -8 96 6 131 49 l31 38 0
506 c0 448 -2 513 -17 562 -54 175 -98 249 -220 370 -62 61 -127 105 -221 149
-142 67 -333 87 -482 51 -159 -39 -283 -109 -398 -225 -41 -41 -77 -75 -80
-75 -3 0 -30 25 -59 56 -52 55 -159 144 -174 144 -4 0 -15 6 -23 13 -55 46
-274 107 -386 107 -112 0 -331 -61 -386 -107 -8 -7 -20 -13 -26 -13 -5 0 -18
-9 -28 -20 -28 -31 -41 -24 -61 31 -12 33 -31 61 -51 76 -32 25 -95 38 -123
26z"/>
<path d="M3308 1740 c-20 -11 -45 -35 -57 -53 -20 -34 -21 -45 -21 -466 0
-394 2 -439 20 -519 43 -189 103 -297 240 -433 117 -116 235 -184 405 -235 84
-25 354 -25 440 -1 70 21 123 41 183 71 64 31 74 37 136 85 31 24 60 41 63 37
4 -4 8 -34 9 -67 1 -50 6 -66 31 -97 60 -74 168 -65 226 18 16 23 17 83 17
803 0 525 -3 785 -11 798 -17 33 -89 79 -123 79 -40 -1 -88 -27 -118 -65 l-23
-29 -5 -456 c-5 -442 -6 -457 -28 -519 -13 -35 -39 -89 -59 -120 -40 -62 -146
-171 -190 -194 -123 -67 -198 -87 -323 -87 -176 0 -289 44 -416 163 -107 100
-160 198 -183 338 -7 38 -11 229 -12 460 -1 217 -4 405 -8 418 -3 13 -23 37
-43 53 -47 38 -101 45 -150 18z"/>
<path d="M5788 1741 c-62 -17 -92 -29 -158 -66 -47 -27 -147 -137 -174 -191
-43 -87 -56 -142 -56 -234 0 -143 45 -252 146 -352 34 -33 86 -74 115 -91 98
-54 131 -59 434 -66 304 -7 309 -7 369 -67 112 -112 79 -291 -66 -365 -35 -18
-64 -19 -460 -19 -393 0 -426 -1 -458 -19 -95 -50 -107 -168 -24 -233 28 -23
30 -23 439 -26 225 -2 444 1 485 6 112 14 199 58 286 146 48 49 82 95 104 142
34 68 34 71 34 209 l1 140 -35 70 c-49 98 -153 202 -244 245 -92 43 -150 50
-415 50 -143 0 -238 4 -265 12 -54 16 -102 53 -134 103 -22 34 -26 52 -26 115
-1 86 19 129 82 178 60 47 104 52 427 52 328 0 349 3 385 62 28 45 23 127 -10
163 -50 53 -63 55 -402 54 -270 0 -322 -3 -380 -18z"/>
<path d="M7930 1742 c-204 -44 -335 -115 -478 -260 -34 -35 -80 -90 -101 -122
-41 -61 -101 -182 -101 -203 0 -6 -8 -32 -17 -57 -12 -35 -16 -83 -17 -210 0
-183 13 -253 75 -381 80 -166 245 -331 404 -407 152 -72 214 -85 400 -86 162
0 204 7 320 51 101 39 228 119 295 188 42 43 45 48 45 103 0 86 -51 142 -128
142 -36 0 -111 -30 -119 -47 -6 -14 -87 -74 -135 -100 -150 -80 -374 -85 -538
-12 -68 30 -173 117 -227 189 -38 50 -88 155 -88 184 l0 26 683 2 682 3 32 23
c18 13 38 35 46 50 7 15 19 26 25 25 19 -5 16 137 -3 151 -9 6 -20 38 -25 71
-41 268 -286 546 -565 641 -149 50 -330 64 -465 36z m280 -276 c92 -16 186
-60 262 -120 101 -80 186 -208 191 -284 l2 -37 -572 -3 -573 -2 0 29 c0 39 62
159 111 215 91 103 220 179 344 201 92 17 144 17 235 1z"/>
</g>
</svg>
